<svg version="1.1" xmlns="http://www.w3.org/2000/svg" viewBox="-284.9280020713806 -1025.2 7317.887548828125 2355.391976928711"><desc>Created with Snap</desc><defs></defs><g><g><g transform="matrix(0.5,0,0,-0.5,0,0)"><path d="M927 1434Q1126 1434 1320 1375L1361 1363L1279 1131L1241 1142Q1060 1192 911 1192Q764 1192 659 1144Q555 1096 555 1021Q555 972 601 935Q648 898 722 872Q796 847 885 822Q975 797 1065 764Q1155 731 1229 688Q1303 645 1349 573Q1396 502 1396 409Q1396 349 1375 290Q1355 232 1306 175Q1258 118 1186 75Q1115 33 1004 6Q894 -20 757 -20Q620 -20 510 5Q400 31 277 79L240 93L325 335L364 320Q617 230 781 230Q935 230 1030 277Q1126 324 1126 401Q1126 444 1097 478Q1068 512 1019 535Q970 559 906 579Q843 599 773 618Q703 637 633 659Q563 681 499 712Q436 743 387 782Q338 821 309 879Q280 938 280 1010Q280 1190 456 1312Q633 1434 927 1434ZM2452 1434Q2651 1434 2845 1375L2886 1363L2804 1131L2766 1142Q2585 1192 2436 1192Q2289 1192 2184 1144Q2080 1096 2080 1021Q2080 972 2126 935Q2173 898 2247 872Q2321 847 2410 822Q2500 797 2590 764Q2680 731 2754 688Q2828 645 2874 573Q2921 502 2921 409Q2921 349 2900 290Q2880 232 2831 175Q2783 118 2711 75Q2640 33 2529 6Q2419 -20 2282 -20Q2145 -20 2035 5Q1925 31 1802 79L1765 93L1850 335L1889 320Q2142 230 2306 230Q2460 230 2555 277Q2651 324 2651 401Q2651 444 2622 478Q2593 512 2544 535Q2495 559 2431 579Q2368 599 2298 618Q2228 637 2158 659Q2088 681 2024 712Q1961 743 1912 782Q1863 821 1834 879Q1805 938 1805 1010Q1805 1190 1981 1312Q2158 1434 2452 1434ZM4016 1436Q4233 1436 4402 1351Q4571 1266 4668 1103Q4765 941 4765 726Q4765 508 4670 339Q4575 171 4403 78Q4231 -15 4008 -15Q3861 -15 3729 30Q3597 76 3492 163Q3388 251 3326 391Q3265 531 3265 707Q3265 926 3361 1092Q3457 1259 3627 1347Q3797 1436 4016 1436ZM4147 1187Q4078 1205 4006 1205Q3934 1205 3866 1187Q3798 1170 3735 1132Q3673 1095 3626 1040Q3579 985 3551 904Q3523 824 3523 727Q3523 496 3666 356Q3809 216 4023 216Q4112 216 4195 245Q4279 274 4350 331Q4421 388 4464 486Q4507 584 4507 709Q4507 811 4477 895Q4447 980 4397 1036Q4348 1092 4282 1131Q4217 1170 4147 1187Z" fill="#210070" style=""></path></g></g><g transform="matrix(0.75,0,0,0.75,0,882.832)"><g transform="matrix(0.512,0,0,-0.512,0,0)"><path d="M955 1301L908 1209Q899 1194 889 1186Q879 1179 863 1179Q846 1179 823 1196Q801 1213 766 1233Q732 1254 683 1271Q635 1288 566 1288Q501 1288 451 1270Q401 1253 367 1223Q334 1193 317 1152Q300 1112 300 1065Q300 1005 329 965Q359 926 407 898Q456 870 517 849Q579 829 643 807Q708 785 769 757Q831 730 879 688Q928 646 957 585Q987 524 987 435Q987 341 955 258Q923 176 861 115Q800 54 710 19Q621 -16 507 -16Q368 -16 253 34Q139 85 58 171L114 263Q122 274 133 281Q145 289 159 289Q180 289 207 266Q234 244 274 217Q315 190 372 167Q430 145 513 145Q582 145 636 164Q690 183 727 217Q765 252 785 300Q805 348 805 407Q805 472 775 513Q746 555 698 583Q650 611 588 630Q527 650 462 670Q398 691 336 718Q275 745 227 788Q179 831 149 895Q120 960 120 1055Q120 1131 149 1202Q179 1273 235 1328Q291 1383 373 1416Q456 1449 563 1449Q683 1449 782 1411Q881 1373 955 1301ZM1226 1013L1404 1013L1404 0L1226 0L1226 1013ZM1444 1331Q1444 1305 1433 1282Q1423 1260 1405 1242Q1388 1225 1365 1215Q1342 1205 1316 1205Q1290 1205 1267 1215Q1245 1225 1227 1242Q1210 1260 1200 1282Q1190 1305 1190 1331Q1190 1357 1200 1380Q1210 1404 1227 1421Q1245 1439 1267 1449Q1290 1459 1316 1459Q1342 1459 1365 1449Q1388 1439 1405 1421Q1423 1404 1433 1380Q1444 1357 1444 1331ZM2059 1030Q2125 1030 2182 1015Q2240 1001 2287 973L2562 973L2562 907Q2562 874 2520 865L2405 849Q2439 784 2439 704Q2439 630 2410 569Q2382 509 2331 466Q2281 423 2211 400Q2142 377 2059 377Q1988 377 1925 394Q1893 374 1876 351Q1860 328 1860 306Q1860 270 1889 251Q1918 233 1966 225Q2014 217 2075 215Q2136 213 2199 208Q2263 204 2324 193Q2385 182 2433 157Q2481 132 2510 88Q2539 44 2539 -26Q2539 -91 2506 -152Q2474 -213 2413 -261Q2352 -308 2264 -337Q2176 -365 2065 -365Q1954 -365 1870 -343Q1787 -321 1732 -284Q1677 -247 1649 -199Q1622 -150 1622 -97Q1622 -22 1669 30Q1717 83 1800 114Q1757 134 1731 167Q1706 201 1706 257Q1706 279 1714 302Q1722 326 1738 349Q1755 372 1779 393Q1803 414 1835 430Q1760 472 1717 541Q1675 611 1675 704Q1675 778 1703 838Q1732 899 1783 941Q1834 984 1904 1007Q1975 1030 2059 1030ZM2375 -55Q2375 -17 2354 6Q2333 29 2297 41Q2261 54 2214 60Q2167 66 2115 68Q2063 71 2009 74Q1955 77 1906 85Q1849 58 1813 19Q1778 -20 1778 -74Q1778 -108 1795 -138Q1813 -167 1849 -189Q1885 -210 1939 -223Q1994 -235 2068 -235Q2140 -235 2197 -222Q2254 -209 2293 -185Q2333 -161 2354 -128Q2375 -95 2375 -55ZM2059 495Q2113 495 2154 510Q2196 525 2224 552Q2252 579 2266 616Q2280 654 2280 699Q2280 792 2223 847Q2167 902 2059 902Q1952 902 1895 847Q1839 792 1839 699Q1839 654 1853 616Q1868 579 1896 552Q1924 525 1965 510Q2006 495 2059 495ZM2918 0L2740 0L2740 1013L2846 1013Q2884 1013 2894 976L2908 866Q2974 939 3055 984Q3137 1029 3244 1029Q3327 1029 3390 1001Q3454 974 3496 923Q3539 873 3561 802Q3583 731 3583 645L3583 0L3405 0L3405 645Q3405 760 3352 823Q3300 887 3192 887Q3113 887 3044 849Q2976 811 2918 746L2918 0ZM4648 1029Q4759 1029 4848 992Q4938 955 5000 887Q5063 819 5096 722Q5130 626 5130 507Q5130 387 5096 291Q5063 195 5000 127Q4938 59 4848 22Q4759 -14 4648 -14Q4537 -14 4447 22Q4358 59 4295 127Q4232 195 4198 291Q4164 387 4164 507Q4164 626 4198 722Q4232 819 4295 887Q4358 955 4447 992Q4537 1029 4648 1029ZM4648 125Q4798 125 4872 225Q4946 326 4946 506Q4946 687 4872 788Q4798 889 4648 889Q4572 889 4516 863Q4460 837 4422 788Q4385 739 4366 667Q4348 596 4348 506Q4348 416 4366 345Q4385 274 4422 225Q4460 177 4516 151Q4572 125 4648 125ZM5528 0L5350 0L5350 1013L5456 1013Q5494 1013 5504 976L5518 866Q5584 939 5665 984Q5747 1029 5854 1029Q5937 1029 6000 1001Q6064 974 6106 923Q6149 873 6171 802Q6193 731 6193 645L6193 0L6015 0L6015 645Q6015 760 5962 823Q5910 887 5802 887Q5723 887 5654 849Q5586 811 5528 746L5528 0ZM7026 0L6848 0L6848 1013L6954 1013Q6992 1013 7002 976L7015 872Q7071 941 7140 985Q7210 1029 7302 1029Q7405 1029 7468 972Q7532 915 7560 818Q7581 873 7615 913Q7650 953 7693 979Q7736 1005 7784 1017Q7833 1029 7883 1029Q7963 1029 8025 1003Q8088 978 8131 929Q8175 880 8198 808Q8221 737 8221 645L8221 0L8043 0L8043 645Q8043 764 7991 825Q7939 887 7840 887Q7796 887 7756 871Q7717 856 7687 826Q7657 796 7639 750Q7622 705 7622 645L7622 0L7444 0L7444 645Q7444 767 7395 827Q7346 887 7252 887Q7186 887 7129 851Q7073 816 7026 755L7026 0ZM9234 648L9234 0L9155 0Q9129 0 9113 8Q9097 16 9092 42L9072 136Q9032 100 8994 71Q8956 43 8914 23Q8872 4 8824 -6Q8777 -16 8719 -16Q8660 -16 8608 0Q8557 17 8519 50Q8481 83 8458 133Q8436 184 8436 253Q8436 313 8469 368Q8502 424 8575 467Q8649 510 8768 537Q8887 565 9059 569L9059 648Q9059 766 9008 826Q8958 887 8859 887Q8794 887 8749 870Q8705 854 8672 833Q8640 813 8616 796Q8593 780 8570 780Q8552 780 8538 789Q8525 799 8517 813L8485 870Q8569 951 8666 991Q8763 1031 8881 1031Q8966 1031 9032 1003Q9098 975 9143 925Q9188 875 9211 804Q9234 733 9234 648ZM8772 109Q8819 109 8858 118Q8897 128 8931 145Q8966 163 8997 188Q9029 213 9059 245L9059 456Q8936 452 8850 436Q8764 421 8710 396Q8656 371 8631 337Q8607 303 8607 261Q8607 221 8620 192Q8633 163 8655 144Q8677 126 8707 117Q8737 109 8772 109ZM10323 0L10217 0Q10179 0 10169 37L10153 160Q10088 81 10004 33Q9921 -14 9813 -14Q9726 -14 9655 19Q9584 53 9534 118Q9484 183 9457 280Q9430 377 9430 503Q9430 615 9460 711Q9490 808 9546 879Q9603 950 9684 990Q9765 1031 9868 1031Q9961 1031 10027 999Q10093 968 10145 911L10145 1473L10323 1473L10323 0ZM9872 130Q9959 130 10024 170Q10090 210 10145 283L10145 773Q10096 839 10037 865Q9979 892 9908 892Q9766 892 9690 791Q9614 690 9614 503Q9614 404 9631 333Q9648 263 9681 217Q9714 172 9762 151Q9810 130 9872 130ZM11023 1029Q11114 1029 11191 998Q11268 968 11324 910Q11380 853 11411 768Q11443 684 11443 576Q11443 534 11434 520Q11425 506 11400 506L10726 506Q10728 410 10752 339Q10776 268 10818 220Q10860 173 10918 149Q10976 126 11048 126Q11115 126 11163 141Q11212 157 11247 175Q11282 193 11305 208Q11329 224 11346 224Q11368 224 11380 207L11430 142Q11397 102 11351 72Q11305 43 11252 24Q11200 5 11144 -5Q11088 -14 11033 -14Q10928 -14 10839 21Q10751 57 10686 125Q10622 194 10586 295Q10550 396 10550 527Q10550 633 10582 725Q10615 817 10676 884Q10737 952 10825 990Q10913 1029 11023 1029ZM11027 898Q10898 898 10824 823Q10750 749 10732 617L11283 617Q11283 679 11266 730Q11249 782 11216 819Q11183 857 11135 877Q11088 898 11027 898ZM12676 911L12636 846Q12624 824 12599 824Q12584 824 12565 835Q12546 846 12518 859Q12491 873 12453 884Q12415 896 12363 896Q12318 896 12282 884Q12246 873 12220 853Q12195 833 12181 806Q12168 780 12168 749Q12168 710 12190 684Q12213 658 12250 639Q12287 620 12334 605Q12381 591 12430 574Q12480 558 12527 538Q12574 518 12611 488Q12648 458 12670 414Q12693 371 12693 310Q12693 240 12668 180Q12643 121 12594 77Q12545 34 12474 9Q12403 -16 12310 -16Q12204 -16 12118 18Q12032 53 11972 107L12014 175Q12022 188 12033 195Q12044 202 12062 202Q12080 202 12100 188Q12120 174 12148 157Q12177 140 12217 126Q12258 112 12319 112Q12371 112 12410 125Q12449 139 12475 162Q12501 185 12513 215Q12526 245 12526 279Q12526 321 12503 348Q12481 376 12444 395Q12407 415 12359 429Q12312 444 12262 460Q12213 476 12165 496Q12118 517 12081 548Q12044 579 12021 624Q11999 670 11999 735Q11999 793 12023 846Q12047 900 12093 940Q12139 981 12206 1005Q12273 1029 12359 1029Q12459 1029 12538 997Q12618 966 12676 911ZM12944 1013L13122 1013L13122 0L12944 0L12944 1013ZM13162 1331Q13162 1305 13151 1282Q13141 1260 13123 1242Q13106 1225 13083 1215Q13060 1205 13034 1205Q13008 1205 12985 1215Q12963 1225 12945 1242Q12928 1260 12918 1282Q12908 1305 12908 1331Q12908 1357 12918 1380Q12928 1404 12945 1421Q12963 1439 12985 1449Q13008 1459 13034 1459Q13060 1459 13083 1449Q13106 1439 13123 1421Q13141 1404 13151 1380Q13162 1357 13162 1331ZM13614 0L13436 0L13436 1013L13542 1013Q13580 1013 13590 976L13603 872Q13659 941 13728 985Q13798 1029 13890 1029Q13993 1029 14056 972Q14120 915 14148 818Q14169 873 14203 913Q14238 953 14281 979Q14324 1005 14372 1017Q14421 1029 14471 1029Q14551 1029 14613 1003Q14676 978 14719 929Q14763 880 14786 808Q14809 737 14809 645L14809 0L14631 0L14631 645Q14631 764 14579 825Q14527 887 14428 887Q14384 887 14344 871Q14305 856 14275 826Q14245 796 14227 750Q14210 705 14210 645L14210 0L14032 0L14032 645Q14032 767 13983 827Q13934 887 13840 887Q13774 887 13717 851Q13661 816 13614 755L13614 0ZM15256 -343L15078 -343L15078 1013L15184 1013Q15222 1013 15232 976L15247 856Q15312 935 15395 983Q15479 1031 15588 1031Q15675 1031 15746 997Q15817 964 15867 898Q15917 833 15944 736Q15971 639 15971 513Q15971 401 15941 304Q15911 208 15855 137Q15799 67 15717 26Q15636 -14 15534 -14Q15440 -14 15373 17Q15307 48 15256 105L15256 -343ZM15529 887Q15442 887 15376 847Q15311 807 15256 734L15256 244Q15305 178 15363 151Q15422 124 15494 124Q15635 124 15711 225Q15787 326 15787 513Q15787 612 15769 683Q15752 754 15719 799Q15686 845 15638 866Q15590 887 15529 887ZM16202 1473L16380 1473L16380 0L16202 0L16202 1473ZM17095 1029Q17186 1029 17263 998Q17340 968 17396 910Q17452 853 17483 768Q17515 684 17515 576Q17515 534 17506 520Q17497 506 17472 506L16798 506Q16800 410 16824 339Q16848 268 16890 220Q16932 173 16990 149Q17048 126 17120 126Q17187 126 17235 141Q17284 157 17319 175Q17354 193 17377 208Q17401 224 17418 224Q17440 224 17452 207L17502 142Q17469 102 17423 72Q17377 43 17324 24Q17272 5 17216 -5Q17160 -14 17105 -14Q17000 -14 16911 21Q16823 57 16758 125Q16694 194 16658 295Q16622 396 16622 527Q16622 633 16654 725Q16687 817 16748 884Q16809 952 16897 990Q16985 1029 17095 1029ZM17099 898Q16970 898 16896 823Q16822 749 16804 617L17355 617Q17355 679 17338 730Q17321 782 17288 819Q17255 857 17207 877Q17160 898 17099 898Z" fill="#210070" style=""></path></g></g></g></svg>